<svg viewBox="0 0 512 512" xmlns="http://www.w3.org/2000/svg" role="img" aria-label="Reisemedizin">
  <!-- Medizinisches Kreuz -->
  <g fill="#111">
    <rect x="196" y="150" width="92" height="272" rx="6"/>
    <rect x="112" y="238" width="260" height="92" rx="6"/>
  </g>
  <!-- Orbit-Ring (gekippter, fast geschlossener Ellipsenbogen), kleine Öffnung oben rechts -->
  <path fill="none" stroke="#111" stroke-width="15" stroke-linecap="round"
    d="M 408 188 A 205 150 -25 1 1 352 126"/>
  <!-- Flugzeug oben rechts, fliegt entlang des Orbits weg -->
  <path fill="#111" transform="matrix(5.1,5.1,-5.1,5.1,392,-4)"
    d="M21 16v-2l-8-5V3.5c0-.83-.67-1.5-1.5-1.5S10 2.67 10 3.5V9l-8 5v2l8-2.5V19l-2 1.5V22l3.5-1 3.5 1v-1.5L13 19v-5.5l8 2.5z"/>
</svg>
