<svg width="64" height="64" viewBox="0 0 64 64" xmlns="http://www.w3.org/2000/svg">
  <rect width="64" height="64" rx="15" fill="#2b2f36"/>
  <g fill="#ffffff">
    <rect x="7.5" y="24" width="49" height="16" rx="3"/>
    <rect x="24" y="7.5" width="16" height="49" rx="3"/>
  </g>
  <g fill="#2b2f36">
    <circle cx="13.17" cy="11.43" r="0.78"/><circle cx="14.97" cy="11.43" r="0.78"/><circle cx="16.76" cy="11.43" r="0.78"/><circle cx="18.55" cy="11.43" r="0.78"/><circle cx="20.34" cy="11.43" r="0.78"/><circle cx="32.90" cy="11.43" r="0.78"/><circle cx="34.69" cy="11.43" r="0.78"/><circle cx="36.48" cy="11.43" r="0.78"/><circle cx="38.28" cy="11.43" r="0.78"/><circle cx="40.07" cy="11.43" r="0.78"/><circle cx="41.86" cy="11.43" r="0.78"/><circle cx="43.66" cy="11.43" r="0.78"/><circle cx="45.45" cy="11.43" r="0.78"/><circle cx="47.24" cy="11.43" r="0.78"/><circle cx="49.03" cy="11.43" r="0.78"/><circle cx="50.83" cy="11.43" r="0.78"/><circle cx="52.62" cy="11.43" r="0.78"/><circle cx="54.41" cy="11.43" r="0.78"/><circle cx="11.38" cy="14.86" r="0.78"/><circle cx="13.17" cy="14.86" r="0.78"/><circle cx="14.97" cy="14.86" r="0.78"/><circle cx="16.76" cy="14.86" r="0.78"/><circle cx="18.55" cy="14.86" r="0.78"/><circle cx="20.34" cy="14.86" r="0.78"/><circle cx="22.14" cy="14.86" r="0.78"/><circle cx="31.10" cy="14.86" r="0.78"/><circle cx="32.90" cy="14.86" r="0.78"/><circle cx="34.69" cy="14.86" r="0.78"/><circle cx="36.48" cy="14.86" r="0.78"/><circle cx="38.28" cy="14.86" r="0.78"/><circle cx="40.07" cy="14.86" r="0.78"/><circle cx="41.86" cy="14.86" r="0.78"/><circle cx="43.66" cy="14.86" r="0.78"/><circle cx="45.45" cy="14.86" r="0.78"/><circle cx="47.24" cy="14.86" r="0.78"/><circle cx="49.03" cy="14.86" r="0.78"/><circle cx="50.83" cy="14.86" r="0.78"/><circle cx="52.62" cy="14.86" r="0.78"/><circle cx="54.41" cy="14.86" r="0.78"/><circle cx="11.38" cy="18.29" r="0.78"/><circle cx="13.17" cy="18.29" r="0.78"/><circle cx="14.97" cy="18.29" r="0.78"/><circle cx="16.76" cy="18.29" r="0.78"/><circle cx="18.55" cy="18.29" r="0.78"/><circle cx="20.34" cy="18.29" r="0.78"/><circle cx="31.10" cy="18.29" r="0.78"/><circle cx="32.90" cy="18.29" r="0.78"/><circle cx="34.69" cy="18.29" r="0.78"/><circle cx="36.48" cy="18.29" r="0.78"/><circle cx="38.28" cy="18.29" r="0.78"/><circle cx="40.07" cy="18.29" r="0.78"/><circle cx="41.86" cy="18.29" r="0.78"/><circle cx="43.66" cy="18.29" r="0.78"/><circle cx="45.45" cy="18.29" r="0.78"/><circle cx="47.24" cy="18.29" r="0.78"/><circle cx="49.03" cy="18.29" r="0.78"/><circle cx="50.83" cy="18.29" r="0.78"/><circle cx="52.62" cy="18.29" r="0.78"/><circle cx="54.41" cy="18.29" r="0.78"/><circle cx="13.17" cy="21.71" r="0.78"/><circle cx="14.97" cy="21.71" r="0.78"/><circle cx="16.76" cy="21.71" r="0.78"/><circle cx="18.55" cy="21.71" r="0.78"/><circle cx="20.34" cy="21.71" r="0.78"/><circle cx="29.31" cy="21.71" r="0.78"/><circle cx="31.10" cy="21.71" r="0.78"/><circle cx="32.90" cy="21.71" r="0.78"/><circle cx="34.69" cy="21.71" r="0.78"/><circle cx="36.48" cy="21.71" r="0.78"/><circle cx="38.28" cy="21.71" r="0.78"/><circle cx="40.07" cy="21.71" r="0.78"/><circle cx="41.86" cy="21.71" r="0.78"/><circle cx="43.66" cy="21.71" r="0.78"/><circle cx="45.45" cy="21.71" r="0.78"/><circle cx="47.24" cy="21.71" r="0.78"/><circle cx="49.03" cy="21.71" r="0.78"/><circle cx="50.83" cy="21.71" r="0.78"/><circle cx="52.62" cy="21.71" r="0.78"/><circle cx="16.76" cy="25.14" r="0.78"/><circle cx="18.55" cy="25.14" r="0.78"/><circle cx="29.31" cy="25.14" r="0.78"/><circle cx="31.10" cy="25.14" r="0.78"/><circle cx="32.90" cy="25.14" r="0.78"/><circle cx="34.69" cy="25.14" r="0.78"/><circle cx="36.48" cy="25.14" r="0.78"/><circle cx="38.28" cy="25.14" r="0.78"/><circle cx="40.07" cy="25.14" r="0.78"/><circle cx="41.86" cy="25.14" r="0.78"/><circle cx="45.45" cy="25.14" r="0.78"/><circle cx="47.24" cy="25.14" r="0.78"/><circle cx="49.03" cy="25.14" r="0.78"/><circle cx="50.83" cy="25.14" r="0.78"/><circle cx="18.55" cy="28.57" r="0.78"/><circle cx="20.34" cy="28.57" r="0.78"/><circle cx="29.31" cy="28.57" r="0.78"/><circle cx="31.10" cy="28.57" r="0.78"/><circle cx="32.90" cy="28.57" r="0.78"/><circle cx="34.69" cy="28.57" r="0.78"/><circle cx="36.48" cy="28.57" r="0.78"/><circle cx="38.28" cy="28.57" r="0.78"/><circle cx="47.24" cy="28.57" r="0.78"/><circle cx="49.03" cy="28.57" r="0.78"/><circle cx="50.83" cy="28.57" r="0.78"/><circle cx="20.34" cy="32.00" r="0.78"/><circle cx="22.14" cy="32.00" r="0.78"/><circle cx="23.93" cy="32.00" r="0.78"/><circle cx="25.72" cy="32.00" r="0.78"/><circle cx="29.31" cy="32.00" r="0.78"/><circle cx="31.10" cy="32.00" r="0.78"/><circle cx="32.90" cy="32.00" r="0.78"/><circle cx="34.69" cy="32.00" r="0.78"/><circle cx="36.48" cy="32.00" r="0.78"/><circle cx="38.28" cy="32.00" r="0.78"/><circle cx="47.24" cy="32.00" r="0.78"/><circle cx="49.03" cy="32.00" r="0.78"/><circle cx="50.83" cy="32.00" r="0.78"/><circle cx="20.34" cy="35.43" r="0.78"/><circle cx="22.14" cy="35.43" r="0.78"/><circle cx="23.93" cy="35.43" r="0.78"/><circle cx="25.72" cy="35.43" r="0.78"/><circle cx="29.31" cy="35.43" r="0.78"/><circle cx="31.10" cy="35.43" r="0.78"/><circle cx="32.90" cy="35.43" r="0.78"/><circle cx="34.69" cy="35.43" r="0.78"/><circle cx="36.48" cy="35.43" r="0.78"/><circle cx="20.34" cy="38.86" r="0.78"/><circle cx="22.14" cy="38.86" r="0.78"/><circle cx="23.93" cy="38.86" r="0.78"/><circle cx="25.72" cy="38.86" r="0.78"/><circle cx="29.31" cy="38.86" r="0.78"/><circle cx="31.10" cy="38.86" r="0.78"/><circle cx="32.90" cy="38.86" r="0.78"/><circle cx="34.69" cy="38.86" r="0.78"/><circle cx="49.03" cy="38.86" r="0.78"/><circle cx="50.83" cy="38.86" r="0.78"/><circle cx="52.62" cy="38.86" r="0.78"/><circle cx="54.41" cy="38.86" r="0.78"/><circle cx="20.34" cy="42.29" r="0.78"/><circle cx="22.14" cy="42.29" r="0.78"/><circle cx="23.93" cy="42.29" r="0.78"/><circle cx="31.10" cy="42.29" r="0.78"/><circle cx="32.90" cy="42.29" r="0.78"/><circle cx="34.69" cy="42.29" r="0.78"/><circle cx="50.83" cy="42.29" r="0.78"/><circle cx="52.62" cy="42.29" r="0.78"/><circle cx="54.41" cy="42.29" r="0.78"/><circle cx="20.34" cy="45.71" r="0.78"/><circle cx="22.14" cy="45.71" r="0.78"/><circle cx="23.93" cy="45.71" r="0.78"/><circle cx="32.90" cy="45.71" r="0.78"/><circle cx="20.34" cy="49.14" r="0.78"/><circle cx="22.14" cy="49.14" r="0.78"/>
  </g>
</svg>